<svg width="54" height="33" viewBox="0 0 54 33" fill="none" xmlns="http://www.w3.org/2000/svg">
<g id="24">
<path d="M0.496453 26.1791C1.49109 25.4053 1.94452 25.0471 1.85676 25.1044C4.72365 22.7831 6.9762 20.8773 8.61442 19.3871C10.2819 17.8969 11.6861 16.3351 12.827 14.7015C13.9679 13.068 14.5383 11.4775 14.5383 9.92999C14.5383 8.75501 14.2604 7.83796 13.7046 7.17882C13.1488 6.51969 12.315 6.19012 11.2034 6.19012C10.0917 6.19012 9.21412 6.60567 8.57054 7.43675C7.9562 8.23917 7.64904 9.38549 7.64904 10.8757H0.408691C0.467199 8.43978 0.99377 6.40506 1.9884 4.77155C3.01229 3.13805 4.34334 1.93441 5.98156 1.16065C7.64904 0.386883 9.49203 0 11.5106 0C14.9918 0 17.61 0.874069 19.3652 2.62221C21.1497 4.37034 22.042 6.64865 22.042 9.45714C22.042 12.5235 20.9742 15.375 18.8387 18.0115C16.7031 20.6194 13.9825 23.17 10.6768 25.6632H22.5247V31.6384H0.496453V26.1791Z" fill="#FCFDFF"/>
<path d="M27.3204 26.48V20.5478L41.1867 1.11766H49.568V20.1179H53.1662V26.48H49.568V32.0683H42.0643V26.48H27.3204ZM42.5909 9.19921L35.2189 20.1179H42.5909V9.19921Z" fill="#FCFDFF"/>
</g>
</svg>
