<svg width="330" height="18" viewBox="0 0 330 18" fill="none" xmlns="http://www.w3.org/2000/svg">
<path d="M10.6246 14.274H4.35938L3.32269 17.2714H0.00976562L5.66652 1.5181H9.34004L14.9968 17.2714H11.6613L10.6246 14.274ZM9.76824 11.7498L7.49201 5.16908L5.21579 11.7498H9.76824Z" fill="url(#paint0_linear_1_81)"/>
<path d="M21.2355 7.3777V13.4176C21.2355 13.8383 21.3331 14.1463 21.5284 14.3416C21.7388 14.5219 22.0844 14.612 22.5651 14.612H24.03V17.2714H22.0468C19.3874 17.2714 18.0578 15.9793 18.0578 13.395V7.3777H16.5703V4.78595H18.0578V1.69839H21.2355V4.78595H24.03V7.3777H21.2355Z" fill="url(#paint1_linear_1_81)"/>
<path d="M43.5239 6.27339C43.1633 5.6123 42.6675 5.10898 42.0365 4.76342C41.4054 4.41785 40.6692 4.24507 39.8279 4.24507C38.8963 4.24507 38.07 4.45541 37.3488 4.8761C36.6276 5.29679 36.0642 5.89777 35.6585 6.67905C35.2529 7.46033 35.05 8.36181 35.05 9.38348C35.05 10.4352 35.2529 11.3517 35.6585 12.133C36.0792 12.9143 36.6577 13.5152 37.3939 13.9359C38.1301 14.3566 38.9865 14.567 39.9631 14.567C41.1651 14.567 42.1492 14.2514 42.9154 13.6204C43.6817 12.9744 44.185 12.0804 44.4254 10.9385H39.0165V8.52707H47.5355V11.2766C47.3251 12.3734 46.8744 13.3875 46.1833 14.3191C45.4921 15.2506 44.5982 16.0018 43.5014 16.5727C42.4196 17.1287 41.2026 17.4066 39.8504 17.4066C38.3329 17.4066 36.9582 17.0686 35.7262 16.3925C34.5092 15.7013 33.5476 14.7473 32.8414 13.5303C32.1503 12.3133 31.8047 10.931 31.8047 9.38348C31.8047 7.83595 32.1503 6.45368 32.8414 5.23669C33.5476 4.00467 34.5092 3.05061 35.7262 2.3745C36.9582 1.68337 38.3254 1.33781 39.8279 1.33781C41.6008 1.33781 43.1408 1.77352 44.4479 2.64495C45.7551 3.50135 46.6565 4.71083 47.1524 6.27339H43.5239Z" fill="url(#paint2_linear_1_81)"/>
<path d="M53.4757 6.72412C53.8814 6.06304 54.4072 5.5447 55.0533 5.16908C55.7144 4.79347 56.4656 4.60566 57.307 4.60566V7.91858H56.4731C55.4815 7.91858 54.7303 8.15146 54.2194 8.61723C53.7236 9.08299 53.4757 9.89431 53.4757 11.0512V17.2714H50.3205V4.78595H53.4757V6.72412Z" fill="url(#paint3_linear_1_81)"/>
<path d="M59.0715 10.9836C59.0715 9.72153 59.3195 8.6022 59.8153 7.6256C60.3261 6.649 61.0097 5.89777 61.8661 5.37191C62.7375 4.84605 63.7066 4.58312 64.7734 4.58312C65.7049 4.58312 66.5162 4.77093 67.2074 5.14654C67.9135 5.52216 68.4769 5.99543 68.8976 6.56637V4.78595H72.0753V17.2714H68.8976V15.4459C68.492 16.0319 67.9285 16.5202 67.2074 16.9108C66.5012 17.2864 65.6824 17.4742 64.7508 17.4742C63.6991 17.4742 62.7375 17.2038 61.8661 16.6629C61.0097 16.122 60.3261 15.3633 59.8153 14.3867C59.3195 13.395 59.0715 12.2607 59.0715 10.9836ZM68.8976 11.0287C68.8976 10.2624 68.7474 9.60885 68.4469 9.06796C68.1464 8.51205 67.7407 8.09136 67.2299 7.80589C66.7191 7.5054 66.1707 7.35516 65.5847 7.35516C64.9987 7.35516 64.4579 7.49789 63.9621 7.78336C63.4662 8.06882 63.0606 8.48951 62.7451 9.04542C62.4446 9.58631 62.2943 10.2324 62.2943 10.9836C62.2943 11.7348 62.4446 12.3959 62.7451 12.9668C63.0606 13.5228 63.4662 13.951 63.9621 14.2514C64.4729 14.5519 65.0138 14.7022 65.5847 14.7022C66.1707 14.7022 66.7191 14.5594 67.2299 14.274C67.7407 13.9735 68.1464 13.5528 68.4469 13.0119C68.7474 12.456 68.8976 11.7949 68.8976 11.0287Z" fill="url(#paint4_linear_1_81)"/>
<path d="M82.5265 4.60566C84.0139 4.60566 85.2159 5.07893 86.1324 6.02548C87.0489 6.957 87.5071 8.26414 87.5071 9.9469V17.2714H84.352V10.3751C84.352 9.38348 84.104 8.62474 83.6082 8.09888C83.1124 7.55799 82.4363 7.28755 81.5799 7.28755C80.7085 7.28755 80.0173 7.55799 79.5065 8.09888C79.0107 8.62474 78.7628 9.38348 78.7628 10.3751V17.2714H75.6076V4.78595H78.7628V6.341C79.1835 5.80011 79.7169 5.37943 80.3629 5.07893C81.024 4.76342 81.7452 4.60566 82.5265 4.60566Z" fill="url(#paint5_linear_1_81)"/>
<path d="M90.1469 10.9836C90.1469 9.72153 90.3948 8.6022 90.8906 7.6256C91.4015 6.649 92.0926 5.89777 92.964 5.37191C93.8354 4.84605 94.8045 4.58312 95.8713 4.58312C96.6826 4.58312 97.4564 4.76341 98.1926 5.124C98.9288 5.46957 99.5147 5.93533 99.9505 6.52129V0.59409H103.151V17.2714H99.9505V15.4234C99.5598 16.0394 99.0114 16.5352 98.3053 16.9108C97.5991 17.2864 96.7803 17.4742 95.8487 17.4742C94.797 17.4742 93.8354 17.2038 92.964 16.6629C92.0926 16.122 91.4015 15.3633 90.8906 14.3867C90.3948 13.395 90.1469 12.2607 90.1469 10.9836ZM99.973 11.0287C99.973 10.2624 99.8228 9.60885 99.5223 9.06796C99.2218 8.51205 98.8161 8.09136 98.3053 7.80589C97.7944 7.5054 97.246 7.35516 96.6601 7.35516C96.0741 7.35516 95.5332 7.49789 95.0374 7.78336C94.5416 8.06882 94.1359 8.48951 93.8204 9.04542C93.5199 9.58631 93.3697 10.2324 93.3697 10.9836C93.3697 11.7348 93.5199 12.3959 93.8204 12.9668C94.1359 13.5228 94.5416 13.951 95.0374 14.2514C95.5483 14.5519 96.0891 14.7022 96.6601 14.7022C97.246 14.7022 97.7944 14.5594 98.3053 14.274C98.8161 13.9735 99.2218 13.5528 99.5223 13.0119C99.8228 12.456 99.973 11.7949 99.973 11.0287Z" fill="url(#paint6_linear_1_81)"/>
<path d="M121.428 9.20318C122.315 9.36845 123.044 9.81168 123.615 10.5329C124.185 11.254 124.471 12.0804 124.471 13.0119C124.471 13.8533 124.261 14.597 123.84 15.2431C123.434 15.8741 122.841 16.3699 122.059 16.7305C121.278 17.0911 120.354 17.2714 119.287 17.2714H112.504V1.54064H118.994C120.061 1.54064 120.978 1.71342 121.744 2.05899C122.525 2.40455 123.111 2.88534 123.502 3.50135C123.908 4.11736 124.11 4.816 124.11 5.59728C124.11 6.51378 123.862 7.28003 123.367 7.89604C122.886 8.51205 122.24 8.94776 121.428 9.20318ZM115.659 8.03126H118.544C119.295 8.03126 119.873 7.86599 120.279 7.53545C120.685 7.18989 120.888 6.70159 120.888 6.07055C120.888 5.43952 120.685 4.95122 120.279 4.60566C119.873 4.26009 119.295 4.08731 118.544 4.08731H115.659V8.03126ZM118.837 14.7022C119.603 14.7022 120.196 14.5219 120.617 14.1613C121.053 13.8007 121.271 13.2899 121.271 12.6288C121.271 11.9527 121.045 11.4268 120.595 11.0512C120.144 10.6606 119.535 10.4652 118.769 10.4652H115.659V14.7022H118.837Z" fill="url(#paint7_linear_1_81)"/>
<path d="M126.625 10.9836C126.625 9.72153 126.873 8.6022 127.369 7.6256C127.88 6.649 128.563 5.89777 129.42 5.37191C130.291 4.84605 131.26 4.58312 132.327 4.58312C133.258 4.58312 134.07 4.77093 134.761 5.14654C135.467 5.52216 136.03 5.99543 136.451 6.56637V4.78595H139.629V17.2714H136.451V15.4459C136.045 16.0319 135.482 16.5202 134.761 16.9108C134.055 17.2864 133.236 17.4742 132.304 17.4742C131.253 17.4742 130.291 17.2038 129.42 16.6629C128.563 16.122 127.88 15.3633 127.369 14.3867C126.873 13.395 126.625 12.2607 126.625 10.9836ZM136.451 11.0287C136.451 10.2624 136.301 9.60885 136 9.06796C135.7 8.51205 135.294 8.09136 134.783 7.80589C134.273 7.5054 133.724 7.35516 133.138 7.35516C132.552 7.35516 132.011 7.49789 131.515 7.78336C131.02 8.06882 130.614 8.48951 130.298 9.04542C129.998 9.58631 129.848 10.2324 129.848 10.9836C129.848 11.7348 129.998 12.3959 130.298 12.9668C130.614 13.5228 131.02 13.951 131.515 14.2514C132.026 14.5519 132.567 14.7022 133.138 14.7022C133.724 14.7022 134.273 14.5594 134.783 14.274C135.294 13.9735 135.7 13.5528 136 13.0119C136.301 12.456 136.451 11.7949 136.451 11.0287Z" fill="url(#paint8_linear_1_81)"/>
<path d="M146.316 0.59409V17.2714H143.161V0.59409H146.316Z" fill="url(#paint9_linear_1_81)"/>
<path d="M153.039 0.59409V17.2714H149.884V0.59409H153.039Z" fill="url(#paint10_linear_1_81)"/>
<path d="M159.763 6.72412C160.168 6.06304 160.694 5.5447 161.34 5.16908C162.001 4.79347 162.753 4.60566 163.594 4.60566V7.91858H162.76C161.768 7.91858 161.017 8.15146 160.506 8.61723C160.011 9.08299 159.763 9.89431 159.763 11.0512V17.2714H156.607V4.78595H159.763V6.72412Z" fill="url(#paint11_linear_1_81)"/>
<path d="M171.714 17.4742C170.512 17.4742 169.43 17.2113 168.469 16.6854C167.507 16.1445 166.748 15.3858 166.192 14.4092C165.651 13.4326 165.381 12.3058 165.381 11.0287C165.381 9.75158 165.659 8.62473 166.215 7.64814C166.786 6.67154 167.56 5.92031 168.536 5.39445C169.513 4.85356 170.602 4.58312 171.804 4.58312C173.006 4.58312 174.095 4.85356 175.072 5.39445C176.048 5.92031 176.815 6.67154 177.371 7.64814C177.942 8.62473 178.227 9.75158 178.227 11.0287C178.227 12.3058 177.934 13.4326 177.348 14.4092C176.777 15.3858 175.996 16.1445 175.004 16.6854C174.028 17.2113 172.931 17.4742 171.714 17.4742ZM171.714 14.7247C172.285 14.7247 172.818 14.5895 173.314 14.3191C173.825 14.0336 174.231 13.6129 174.531 13.057C174.831 12.5011 174.982 11.825 174.982 11.0287C174.982 9.84173 174.666 8.93274 174.035 8.30171C173.419 7.65565 172.66 7.33262 171.759 7.33262C170.857 7.33262 170.099 7.65565 169.483 8.30171C168.882 8.93274 168.581 9.84173 168.581 11.0287C168.581 12.2156 168.874 13.1321 169.46 13.7782C170.061 14.4092 170.812 14.7247 171.714 14.7247Z" fill="url(#paint12_linear_1_81)"/>
<path d="M186.536 17.4742C185.334 17.4742 184.253 17.2113 183.291 16.6854C182.329 16.1445 181.571 15.3858 181.015 14.4092C180.474 13.4326 180.203 12.3058 180.203 11.0287C180.203 9.75158 180.481 8.62473 181.037 7.64814C181.608 6.67154 182.382 5.92031 183.359 5.39445C184.335 4.85356 185.424 4.58312 186.626 4.58312C187.828 4.58312 188.918 4.85356 189.894 5.39445C190.871 5.92031 191.637 6.67154 192.193 7.64814C192.764 8.62473 193.049 9.75158 193.049 11.0287C193.049 12.3058 192.757 13.4326 192.171 14.4092C191.6 15.3858 190.818 16.1445 189.827 16.6854C188.85 17.2113 187.753 17.4742 186.536 17.4742ZM186.536 14.7247C187.107 14.7247 187.641 14.5895 188.136 14.3191C188.647 14.0336 189.053 13.6129 189.353 13.057C189.654 12.5011 189.804 11.825 189.804 11.0287C189.804 9.84173 189.489 8.93274 188.858 8.30171C188.242 7.65565 187.483 7.33262 186.581 7.33262C185.68 7.33262 184.921 7.65565 184.305 8.30171C183.704 8.93274 183.404 9.84173 183.404 11.0287C183.404 12.2156 183.697 13.1321 184.283 13.7782C184.884 14.4092 185.635 14.7247 186.536 14.7247Z" fill="url(#paint13_linear_1_81)"/>
<path d="M211.32 4.60566C212.853 4.60566 214.085 5.07893 215.016 6.02548C215.963 6.957 216.436 8.26414 216.436 9.9469V17.2714H213.281V10.3751C213.281 9.3985 213.033 8.65479 212.537 8.14395C212.041 7.61809 211.365 7.35516 210.509 7.35516C209.652 7.35516 208.969 7.61809 208.458 8.14395C207.962 8.65479 207.714 9.3985 207.714 10.3751V17.2714H204.559V10.3751C204.559 9.3985 204.311 8.65479 203.815 8.14395C203.319 7.61809 202.643 7.35516 201.787 7.35516C200.915 7.35516 200.224 7.61809 199.714 8.14395C199.218 8.65479 198.97 9.3985 198.97 10.3751V17.2714H195.815V4.78595H198.97V6.29593C199.375 5.77007 199.894 5.35689 200.525 5.05639C201.171 4.7559 201.877 4.60566 202.643 4.60566C203.62 4.60566 204.491 4.816 205.258 5.23669C206.024 5.64235 206.617 6.22831 207.038 6.99457C207.444 6.27339 208.03 5.69494 208.796 5.25923C209.577 4.82351 210.419 4.60566 211.32 4.60566Z" fill="url(#paint14_linear_1_81)"/>
<path d="M227.343 13.5083V11.0292L234.713 0.481987H238.386V10.7588H240.37V13.5083H238.386V16.7085H235.231V13.5083H227.343ZM235.434 3.86252L230.814 10.7588H235.434V3.86252Z" fill="url(#paint15_linear_1_81)"/>
<path d="M246.863 6.81485V12.8547C246.863 13.2754 246.961 13.5834 247.156 13.7788C247.366 13.959 247.712 14.0492 248.193 14.0492H249.658V16.7085H247.674C245.015 16.7085 243.685 15.4164 243.685 12.8322V6.81485H242.198V4.22311H243.685V1.13556H246.863V4.22311H249.658V6.81485H246.863Z" fill="url(#paint16_linear_1_81)"/>
<path d="M259.409 4.04282C260.356 4.04282 261.197 4.25316 261.933 4.67385C262.67 5.07951 263.241 5.68801 263.646 6.49933C264.067 7.29564 264.277 8.25721 264.277 9.38406V16.7085H261.122V9.81226C261.122 8.82063 260.874 8.06189 260.378 7.53603C259.883 6.99515 259.206 6.72471 258.35 6.72471C257.479 6.72471 256.787 6.99515 256.277 7.53603C255.781 8.06189 255.533 8.82063 255.533 9.81226V16.7085H252.378V0.03125H255.533V5.77815C255.939 5.23727 256.479 4.81658 257.156 4.51609C257.832 4.20057 258.583 4.04282 259.409 4.04282Z" fill="url(#paint17_linear_1_81)"/>
<path d="M283.263 0.977804V3.52447H276.704V7.55857H281.73V10.0602H276.704V16.7085H273.549V0.977804H283.263Z" fill="url(#paint18_linear_1_81)"/>
<path d="M289.106 0.03125V16.7085H285.951V0.03125H289.106Z" fill="url(#paint19_linear_1_81)"/>
<path d="M298.218 16.9114C297.016 16.9114 295.934 16.6484 294.973 16.1226C294.011 15.5817 293.252 14.823 292.696 13.8464C292.156 12.8698 291.885 11.7429 291.885 10.4658C291.885 9.18874 292.163 8.0619 292.719 7.0853C293.29 6.1087 294.064 5.35747 295.04 4.83161C296.017 4.29072 297.106 4.02028 298.308 4.02028C299.51 4.02028 300.599 4.29072 301.576 4.83161C302.553 5.35747 303.319 6.1087 303.875 7.0853C304.446 8.0619 304.731 9.18874 304.731 10.4658C304.731 11.7429 304.438 12.8698 303.852 13.8464C303.281 14.823 302.5 15.5817 301.508 16.1226C300.532 16.6484 299.435 16.9114 298.218 16.9114ZM298.218 14.1619C298.789 14.1619 299.322 14.0267 299.818 13.7562C300.329 13.4707 300.735 13.0501 301.035 12.4942C301.336 11.9382 301.486 11.2621 301.486 10.4658C301.486 9.27889 301.17 8.3699 300.539 7.73886C299.923 7.09281 299.165 6.76978 298.263 6.76978C297.362 6.76978 296.603 7.09281 295.987 7.73886C295.386 8.3699 295.085 9.27889 295.085 10.4658C295.085 11.6528 295.378 12.5693 295.964 13.2153C296.565 13.8464 297.316 14.1619 298.218 14.1619Z" fill="url(#paint20_linear_1_81)"/>
<path d="M313.04 16.9114C311.838 16.9114 310.757 16.6484 309.795 16.1226C308.834 15.5817 308.075 14.823 307.519 13.8464C306.978 12.8698 306.708 11.7429 306.708 10.4658C306.708 9.18874 306.985 8.0619 307.541 7.0853C308.112 6.1087 308.886 5.35747 309.863 4.83161C310.839 4.29072 311.929 4.02028 313.131 4.02028C314.333 4.02028 315.422 4.29072 316.398 4.83161C317.375 5.35747 318.141 6.1087 318.697 7.0853C319.268 8.0619 319.554 9.18874 319.554 10.4658C319.554 11.7429 319.261 12.8698 318.675 13.8464C318.104 14.823 317.322 15.5817 316.331 16.1226C315.354 16.6484 314.257 16.9114 313.04 16.9114ZM313.04 14.1619C313.611 14.1619 314.145 14.0267 314.641 13.7562C315.151 13.4707 315.557 13.0501 315.858 12.4942C316.158 11.9382 316.308 11.2621 316.308 10.4658C316.308 9.27889 315.993 8.3699 315.362 7.73886C314.746 7.09281 313.987 6.76978 313.085 6.76978C312.184 6.76978 311.425 7.09281 310.809 7.73886C310.208 8.3699 309.908 9.27889 309.908 10.4658C309.908 11.6528 310.201 12.5693 310.787 13.2153C311.388 13.8464 312.139 14.1619 313.04 14.1619Z" fill="url(#paint21_linear_1_81)"/>
<path d="M325.474 6.16128C325.88 5.5002 326.405 4.98185 327.051 4.60624C327.713 4.23062 328.464 4.04282 329.305 4.04282V7.35574H328.471C327.48 7.35574 326.728 7.58862 326.218 8.05438C325.722 8.52014 325.474 9.33147 325.474 10.4884V16.7085H322.319V4.22311H325.474V6.16128Z" fill="url(#paint22_linear_1_81)"/>
<defs>
<linearGradient id="paint0_linear_1_81" x1="0.00965379" y1="-188.233" x2="388.342" y2="-170.784" gradientUnits="userSpaceOnUse">
<stop stop-color="#14DB60"/>
<stop offset="1" stop-color="#AAFFCB"/>
</linearGradient>
<linearGradient id="paint1_linear_1_81" x1="0.00965379" y1="-188.233" x2="388.342" y2="-170.784" gradientUnits="userSpaceOnUse">
<stop stop-color="#14DB60"/>
<stop offset="1" stop-color="#AAFFCB"/>
</linearGradient>
<linearGradient id="paint2_linear_1_81" x1="0.00965379" y1="-188.233" x2="388.342" y2="-170.784" gradientUnits="userSpaceOnUse">
<stop stop-color="#14DB60"/>
<stop offset="1" stop-color="#AAFFCB"/>
</linearGradient>
<linearGradient id="paint3_linear_1_81" x1="0.00965379" y1="-188.233" x2="388.342" y2="-170.784" gradientUnits="userSpaceOnUse">
<stop stop-color="#14DB60"/>
<stop offset="1" stop-color="#AAFFCB"/>
</linearGradient>
<linearGradient id="paint4_linear_1_81" x1="0.00965379" y1="-188.233" x2="388.342" y2="-170.784" gradientUnits="userSpaceOnUse">
<stop stop-color="#14DB60"/>
<stop offset="1" stop-color="#AAFFCB"/>
</linearGradient>
<linearGradient id="paint5_linear_1_81" x1="0.00965379" y1="-188.233" x2="388.342" y2="-170.784" gradientUnits="userSpaceOnUse">
<stop stop-color="#14DB60"/>
<stop offset="1" stop-color="#AAFFCB"/>
</linearGradient>
<linearGradient id="paint6_linear_1_81" x1="0.00965379" y1="-188.233" x2="388.342" y2="-170.784" gradientUnits="userSpaceOnUse">
<stop stop-color="#14DB60"/>
<stop offset="1" stop-color="#AAFFCB"/>
</linearGradient>
<linearGradient id="paint7_linear_1_81" x1="0.00965379" y1="-188.233" x2="388.342" y2="-170.784" gradientUnits="userSpaceOnUse">
<stop stop-color="#14DB60"/>
<stop offset="1" stop-color="#AAFFCB"/>
</linearGradient>
<linearGradient id="paint8_linear_1_81" x1="0.00965379" y1="-188.233" x2="388.342" y2="-170.784" gradientUnits="userSpaceOnUse">
<stop stop-color="#14DB60"/>
<stop offset="1" stop-color="#AAFFCB"/>
</linearGradient>
<linearGradient id="paint9_linear_1_81" x1="0.00965379" y1="-188.233" x2="388.342" y2="-170.784" gradientUnits="userSpaceOnUse">
<stop stop-color="#14DB60"/>
<stop offset="1" stop-color="#AAFFCB"/>
</linearGradient>
<linearGradient id="paint10_linear_1_81" x1="0.00965379" y1="-188.233" x2="388.342" y2="-170.784" gradientUnits="userSpaceOnUse">
<stop stop-color="#14DB60"/>
<stop offset="1" stop-color="#AAFFCB"/>
</linearGradient>
<linearGradient id="paint11_linear_1_81" x1="0.00965379" y1="-188.233" x2="388.342" y2="-170.784" gradientUnits="userSpaceOnUse">
<stop stop-color="#14DB60"/>
<stop offset="1" stop-color="#AAFFCB"/>
</linearGradient>
<linearGradient id="paint12_linear_1_81" x1="0.00965379" y1="-188.233" x2="388.342" y2="-170.784" gradientUnits="userSpaceOnUse">
<stop stop-color="#14DB60"/>
<stop offset="1" stop-color="#AAFFCB"/>
</linearGradient>
<linearGradient id="paint13_linear_1_81" x1="0.00965379" y1="-188.233" x2="388.342" y2="-170.784" gradientUnits="userSpaceOnUse">
<stop stop-color="#14DB60"/>
<stop offset="1" stop-color="#AAFFCB"/>
</linearGradient>
<linearGradient id="paint14_linear_1_81" x1="0.00965379" y1="-188.233" x2="388.342" y2="-170.784" gradientUnits="userSpaceOnUse">
<stop stop-color="#14DB60"/>
<stop offset="1" stop-color="#AAFFCB"/>
</linearGradient>
<linearGradient id="paint15_linear_1_81" x1="0.00965379" y1="-188.233" x2="388.342" y2="-170.784" gradientUnits="userSpaceOnUse">
<stop stop-color="#14DB60"/>
<stop offset="1" stop-color="#AAFFCB"/>
</linearGradient>
<linearGradient id="paint16_linear_1_81" x1="0.00965379" y1="-188.233" x2="388.342" y2="-170.784" gradientUnits="userSpaceOnUse">
<stop stop-color="#14DB60"/>
<stop offset="1" stop-color="#AAFFCB"/>
</linearGradient>
<linearGradient id="paint17_linear_1_81" x1="0.00965379" y1="-188.233" x2="388.342" y2="-170.784" gradientUnits="userSpaceOnUse">
<stop stop-color="#14DB60"/>
<stop offset="1" stop-color="#AAFFCB"/>
</linearGradient>
<linearGradient id="paint18_linear_1_81" x1="0.00965379" y1="-188.233" x2="388.342" y2="-170.784" gradientUnits="userSpaceOnUse">
<stop stop-color="#14DB60"/>
<stop offset="1" stop-color="#AAFFCB"/>
</linearGradient>
<linearGradient id="paint19_linear_1_81" x1="0.00965379" y1="-188.233" x2="388.342" y2="-170.784" gradientUnits="userSpaceOnUse">
<stop stop-color="#14DB60"/>
<stop offset="1" stop-color="#AAFFCB"/>
</linearGradient>
<linearGradient id="paint20_linear_1_81" x1="0.00965379" y1="-188.233" x2="388.342" y2="-170.784" gradientUnits="userSpaceOnUse">
<stop stop-color="#14DB60"/>
<stop offset="1" stop-color="#AAFFCB"/>
</linearGradient>
<linearGradient id="paint21_linear_1_81" x1="0.00965379" y1="-188.233" x2="388.342" y2="-170.784" gradientUnits="userSpaceOnUse">
<stop stop-color="#14DB60"/>
<stop offset="1" stop-color="#AAFFCB"/>
</linearGradient>
<linearGradient id="paint22_linear_1_81" x1="0.00965379" y1="-188.233" x2="388.342" y2="-170.784" gradientUnits="userSpaceOnUse">
<stop stop-color="#14DB60"/>
<stop offset="1" stop-color="#AAFFCB"/>
</linearGradient>
</defs>
</svg>
