<svg width="55" height="26" viewBox="0 0 55 26" fill="none" xmlns="http://www.w3.org/2000/svg">
<g id="For Future Healthcare">
<path d="M14.2037 0.272461V2.87082H3.56443V11.1224H12.2022V13.7207H3.56443V24.7462H0.369141V0.272461H14.2037Z" fill="url(#paint0_linear_1_73)"/>
<path d="M28.5616 25.0623C26.7591 25.0623 25.1205 24.6526 23.6458 23.8333C22.1944 23.014 21.0474 21.8553 20.2047 20.3571C19.3854 18.8355 18.9757 17.0799 18.9757 15.0902C18.9757 13.1238 19.3971 11.3916 20.2398 9.89343C21.1059 8.37186 22.2764 7.21314 23.7511 6.41724C25.2259 5.59794 26.8762 5.18828 28.7021 5.18828C30.5279 5.18828 32.1782 5.59794 33.653 6.41724C35.1277 7.21314 36.2865 8.36016 37.1292 9.85832C37.9953 11.3565 38.4284 13.1004 38.4284 15.0902C38.4284 17.0799 37.9836 18.8355 37.0941 20.3571C36.2279 21.8553 35.0458 23.014 33.5477 23.8333C32.0495 24.6526 30.3875 25.0623 28.5616 25.0623ZM28.5616 22.2532C29.7086 22.2532 30.7854 21.984 31.792 21.4456C32.7986 20.9072 33.6062 20.0996 34.2148 19.0228C34.8468 17.946 35.1628 16.6351 35.1628 15.0902C35.1628 13.5452 34.8585 12.2343 34.2499 11.1575C33.6413 10.0807 32.8454 9.2848 31.8622 8.76981C30.8791 8.23141 29.814 7.96221 28.6669 7.96221C27.4965 7.96221 26.4197 8.23141 25.4365 8.76981C24.4768 9.2848 23.7043 10.0807 23.1191 11.1575C22.5339 12.2343 22.2413 13.5452 22.2413 15.0902C22.2413 16.6585 22.5222 17.9811 23.084 19.0579C23.6692 20.1347 24.4417 20.9423 25.4014 21.4807C26.3612 21.9957 27.4146 22.2532 28.5616 22.2532Z" fill="url(#paint1_linear_1_73)"/>
<path d="M47.9316 8.62936C48.4935 7.52915 49.2893 6.67473 50.3193 6.06611C51.3727 5.45748 52.6485 5.15317 54.1466 5.15317V8.4538H53.3039C49.7224 8.4538 47.9316 10.3967 47.9316 14.2826V24.7462H44.7364V5.5043H47.9316V8.62936Z" fill="url(#paint2_linear_1_73)"/>
</g>
<defs>
<linearGradient id="paint0_linear_1_73" x1="0.369122" y1="-267.287" x2="63.9143" y2="-266.959" gradientUnits="userSpaceOnUse">
<stop stop-color="#14DB60"/>
<stop offset="1" stop-color="#AAFFCB"/>
</linearGradient>
<linearGradient id="paint1_linear_1_73" x1="0.369122" y1="-267.287" x2="63.9143" y2="-266.959" gradientUnits="userSpaceOnUse">
<stop stop-color="#14DB60"/>
<stop offset="1" stop-color="#AAFFCB"/>
</linearGradient>
<linearGradient id="paint2_linear_1_73" x1="0.369122" y1="-267.287" x2="63.9143" y2="-266.959" gradientUnits="userSpaceOnUse">
<stop stop-color="#14DB60"/>
<stop offset="1" stop-color="#AAFFCB"/>
</linearGradient>
</defs>
</svg>
