<svg width="468" height="38" viewBox="0 0 468 38" fill="none" xmlns="http://www.w3.org/2000/svg">
<path d="M21.3923 2.38752V8.03601H7.11163V16.9836H18.0552V22.5321H7.11163V37.2782H0.241211V2.38752H21.3923Z" fill="url(#paint0_linear_1_72)"/>
<path d="M53.4022 9.5856V37.2782H46.4827V33.7791C45.5994 34.9788 44.438 35.9286 42.9985 36.6284C41.5917 37.2949 40.054 37.6281 38.3855 37.6281C36.2589 37.6281 34.3777 37.1782 32.7419 36.2785C31.1061 35.3454 29.8138 33.9957 28.865 32.2296C27.949 30.43 27.4909 28.2973 27.4909 25.8313V9.5856H34.3614V24.8315C34.3614 27.0309 34.9012 28.7305 35.9808 29.9302C37.0605 31.0965 38.5327 31.6797 40.3975 31.6797C42.2951 31.6797 43.7837 31.0965 44.8633 29.9302C45.9429 28.7305 46.4827 27.0309 46.4827 24.8315V9.5856H53.4022Z" fill="url(#paint1_linear_1_72)"/>
<path d="M69.6524 15.3341V28.7305C69.6524 29.6636 69.8651 30.3467 70.2904 30.7799C70.7484 31.1798 71.5009 31.3798 72.5478 31.3798H75.7376V37.2782H71.4191C65.6283 37.2782 62.7329 34.4123 62.7329 28.6805V15.3341H59.494V9.5856H62.7329V2.73743H69.6524V9.5856H75.7376V15.3341H69.6524Z" fill="url(#paint2_linear_1_72)"/>
<path d="M107.817 9.5856V37.2782H100.898V33.7791C100.015 34.9788 98.8531 35.9286 97.4136 36.6284C96.0068 37.2949 94.4691 37.6281 92.8006 37.6281C90.674 37.6281 88.7928 37.1782 87.157 36.2785C85.5212 35.3454 84.2289 33.9957 83.2801 32.2296C82.3641 30.43 81.9061 28.2973 81.9061 25.8313V9.5856H88.7765V24.8315C88.7765 27.0309 89.3163 28.7305 90.3959 29.9302C91.4756 31.0965 92.9478 31.6797 94.8126 31.6797C96.7102 31.6797 98.1988 31.0965 99.2784 29.9302C100.358 28.7305 100.898 27.0309 100.898 24.8315V9.5856H107.817Z" fill="url(#paint3_linear_1_72)"/>
<path d="M122.939 13.8845C123.822 12.4182 124.967 11.2685 126.374 10.4354C127.814 9.60226 129.449 9.18571 131.281 9.18571V16.5337H129.466C127.306 16.5337 125.671 17.0503 124.558 18.0833C123.479 19.1164 122.939 20.9159 122.939 23.4819V37.2782H116.068V9.5856H122.939V13.8845Z" fill="url(#paint4_linear_1_72)"/>
<path d="M162.655 22.8321C162.655 23.8318 162.589 24.7316 162.458 25.5313H142.583C142.747 27.5308 143.434 29.0971 144.644 30.2301C145.855 31.3631 147.343 31.9296 149.11 31.9296C151.662 31.9296 153.478 30.8133 154.557 28.5805H161.968C161.182 31.2465 159.677 33.4459 157.453 35.1788C155.228 36.8783 152.496 37.7281 149.257 37.7281C146.64 37.7281 144.284 37.1449 142.191 35.9785C140.129 34.7789 138.51 33.096 137.332 30.9299C136.187 28.7638 135.615 26.2645 135.615 23.4319C135.615 20.566 136.187 18.05 137.332 15.8839C138.477 13.7178 140.08 12.0516 142.141 10.8853C144.203 9.7189 146.575 9.13572 149.257 9.13572C151.842 9.13572 154.148 9.70224 156.177 10.8353C158.238 11.9683 159.825 13.5845 160.937 15.684C162.082 17.7501 162.655 20.1328 162.655 22.8321ZM155.539 20.8326C155.506 19.0331 154.868 17.6001 153.625 16.5337C152.382 15.434 150.86 14.8842 149.061 14.8842C147.36 14.8842 145.92 15.4174 144.742 16.4838C143.597 17.5168 142.894 18.9664 142.632 20.8326H155.539Z" fill="url(#paint5_linear_1_72)"/>
<path d="M210.721 2.38752V37.2782H203.851V22.4322H189.178V37.2782H182.307V2.38752H189.178V16.7337H203.851V2.38752H210.721Z" fill="url(#paint6_linear_1_72)"/>
<path d="M244.229 22.8321C244.229 23.8318 244.164 24.7316 244.033 25.5313H224.158C224.321 27.5308 225.009 29.0971 226.219 30.2301C227.43 31.3631 228.918 31.9296 230.685 31.9296C233.237 31.9296 235.052 30.8133 236.132 28.5805H243.542C242.757 31.2465 241.252 33.4459 239.027 35.1788C236.803 36.8783 234.071 37.7281 230.832 37.7281C228.215 37.7281 225.859 37.1449 223.765 35.9785C221.704 34.7789 220.085 33.096 218.907 30.9299C217.762 28.7638 217.189 26.2645 217.189 23.4319C217.189 20.566 217.762 18.05 218.907 15.8839C220.052 13.7178 221.655 12.0516 223.716 10.8853C225.777 9.7189 228.149 9.13572 230.832 9.13572C233.417 9.13572 235.723 9.70224 237.752 10.8353C239.813 11.9683 241.399 13.5845 242.512 15.684C243.657 17.7501 244.229 20.1328 244.229 22.8321ZM237.114 20.8326C237.081 19.0331 236.443 17.6001 235.2 16.5337C233.956 15.434 232.435 14.8842 230.636 14.8842C228.934 14.8842 227.495 15.4174 226.317 16.4838C225.172 17.5168 224.469 18.9664 224.207 20.8326H237.114Z" fill="url(#paint7_linear_1_72)"/>
<path d="M248.95 23.3319C248.95 20.5327 249.489 18.05 250.569 15.8839C251.681 13.7178 253.17 12.0516 255.035 10.8853C256.932 9.7189 259.043 9.13572 261.365 9.13572C263.394 9.13572 265.161 9.55228 266.666 10.3854C268.203 11.2185 269.43 12.2682 270.346 13.5345V9.5856H277.266V37.2782H270.346V33.2293C269.463 34.5289 268.236 35.612 266.666 36.4784C265.128 37.3115 263.345 37.7281 261.316 37.7281C259.026 37.7281 256.932 37.1282 255.035 35.9286C253.17 34.7289 251.681 33.046 250.569 30.8799C249.489 28.6805 248.95 26.1645 248.95 23.3319ZM270.346 23.4319C270.346 21.7324 270.019 20.2827 269.365 19.0831C268.71 17.8501 267.827 16.917 266.715 16.2838C265.602 15.6173 264.408 15.2841 263.132 15.2841C261.856 15.2841 260.678 15.6007 259.599 16.2338C258.519 16.867 257.636 17.8001 256.949 19.0331C256.294 20.2328 255.967 21.6657 255.967 23.3319C255.967 24.9981 256.294 26.4644 256.949 27.7308C257.636 28.9638 258.519 29.9135 259.599 30.58C260.711 31.2465 261.889 31.5797 263.132 31.5797C264.408 31.5797 265.602 31.2631 266.715 30.63C267.827 29.9635 268.71 29.0304 269.365 27.8307C270.019 26.5977 270.346 25.1314 270.346 23.4319Z" fill="url(#paint8_linear_1_72)"/>
<path d="M292.318 0.288086V37.2782H285.448V0.288086H292.318Z" fill="url(#paint9_linear_1_72)"/>
<path d="M308.578 15.3341V28.7305C308.578 29.6636 308.79 30.3467 309.216 30.7799C309.674 31.1798 310.426 31.3798 311.473 31.3798H314.663V37.2782H310.344C304.554 37.2782 301.658 34.4123 301.658 28.6805V15.3341H298.419V9.5856H301.658V2.73743H308.578V9.5856H314.663V15.3341H308.578Z" fill="url(#paint10_linear_1_72)"/>
<path d="M336.388 9.18571C338.449 9.18571 340.281 9.65225 341.884 10.5853C343.487 11.4851 344.731 12.8347 345.614 14.6343C346.53 16.4004 346.988 18.5332 346.988 21.0325V37.2782H340.118V21.9823C340.118 19.7829 339.578 18.1 338.498 16.9336C337.419 15.734 335.946 15.1341 334.082 15.1341C332.184 15.1341 330.679 15.734 329.567 16.9336C328.487 18.1 327.947 19.7829 327.947 21.9823V37.2782H321.077V0.288086H327.947V13.0347C328.831 11.835 330.008 10.9019 331.481 10.2354C332.953 9.53561 334.589 9.18571 336.388 9.18571Z" fill="url(#paint11_linear_1_72)"/>
<path d="M353.227 23.4319C353.227 20.566 353.8 18.0667 354.945 15.9339C356.09 13.7678 357.676 12.1016 359.705 10.9352C361.733 9.73556 364.056 9.13572 366.673 9.13572C370.043 9.13572 372.824 10.0022 375.016 11.735C377.241 13.4346 378.729 15.8339 379.482 18.9331H372.072C371.679 17.7334 371.008 16.8003 370.06 16.1339C369.144 15.434 367.998 15.0841 366.624 15.0841C364.661 15.0841 363.107 15.8173 361.962 17.2835C360.817 18.7165 360.245 20.7659 360.245 23.4319C360.245 26.0645 360.817 28.114 361.962 29.5803C363.107 31.0132 364.661 31.7297 366.624 31.7297C369.405 31.7297 371.221 30.4634 372.072 27.9307H379.482C378.729 30.9299 377.241 33.3126 375.016 35.0788C372.791 36.845 370.011 37.7281 366.673 37.7281C364.056 37.7281 361.733 37.1449 359.705 35.9785C357.676 34.7789 356.09 33.1127 354.945 30.9799C353.8 28.8138 353.227 26.2978 353.227 23.4319Z" fill="url(#paint12_linear_1_72)"/>
<path d="M384.221 23.3319C384.221 20.5327 384.76 18.05 385.84 15.8839C386.952 13.7178 388.441 12.0516 390.306 10.8853C392.203 9.7189 394.314 9.13572 396.636 9.13572C398.665 9.13572 400.432 9.55228 401.937 10.3854C403.474 11.2185 404.701 12.2682 405.617 13.5345V9.5856H412.537V37.2782H405.617V33.2293C404.734 34.5289 403.507 35.612 401.937 36.4784C400.399 37.3115 398.616 37.7281 396.587 37.7281C394.297 37.7281 392.203 37.1282 390.306 35.9286C388.441 34.7289 386.952 33.046 385.84 30.8799C384.76 28.6805 384.221 26.1645 384.221 23.3319ZM405.617 23.4319C405.617 21.7324 405.29 20.2827 404.636 19.0831C403.981 17.8501 403.098 16.917 401.986 16.2838C400.873 15.6173 399.679 15.2841 398.403 15.2841C397.127 15.2841 395.949 15.6007 394.87 16.2338C393.79 16.867 392.907 17.8001 392.22 19.0331C391.565 20.2328 391.238 21.6657 391.238 23.3319C391.238 24.9981 391.565 26.4644 392.22 27.7308C392.907 28.9638 393.79 29.9135 394.87 30.58C395.982 31.2465 397.16 31.5797 398.403 31.5797C399.679 31.5797 400.873 31.2631 401.986 30.63C403.098 29.9635 403.981 29.0304 404.636 27.8307C405.29 26.5977 405.617 25.1314 405.617 23.4319Z" fill="url(#paint13_linear_1_72)"/>
<path d="M427.589 13.8845C428.473 12.4182 429.618 11.2685 431.025 10.4354C432.464 9.60226 434.1 9.18571 435.932 9.18571V16.5337H434.116C431.957 16.5337 430.321 17.0503 429.209 18.0833C428.129 19.1164 427.589 20.9159 427.589 23.4819V37.2782H420.719V9.5856H427.589V13.8845Z" fill="url(#paint14_linear_1_72)"/>
<path d="M467.305 22.8321C467.305 23.8318 467.24 24.7316 467.109 25.5313H447.234C447.397 27.5308 448.084 29.0971 449.295 30.2301C450.505 31.3631 451.994 31.9296 453.761 31.9296C456.312 31.9296 458.128 30.8133 459.208 28.5805H466.618C465.833 31.2465 464.328 33.4459 462.103 35.1788C459.879 36.8783 457.147 37.7281 453.908 37.7281C451.291 37.7281 448.935 37.1449 446.841 35.9785C444.78 34.7789 443.161 33.096 441.983 30.9299C440.838 28.7638 440.265 26.2645 440.265 23.4319C440.265 20.566 440.838 18.05 441.983 15.8839C443.128 13.7178 444.731 12.0516 446.792 10.8853C448.853 9.7189 451.225 9.13572 453.908 9.13572C456.492 9.13572 458.799 9.70224 460.827 10.8353C462.888 11.9683 464.475 13.5845 465.588 15.684C466.733 17.7501 467.305 20.1328 467.305 22.8321ZM460.189 20.8326C460.157 19.0331 459.519 17.6001 458.275 16.5337C457.032 15.434 455.511 14.8842 453.712 14.8842C452.01 14.8842 450.571 15.4174 449.393 16.4838C448.248 17.5168 447.545 18.9664 447.283 20.8326H460.189Z" fill="url(#paint15_linear_1_72)"/>
<defs>
<linearGradient id="paint0_linear_1_72" x1="0.241052" y1="-403.807" x2="551.667" y2="-387.434" gradientUnits="userSpaceOnUse">
<stop stop-color="#14DB60"/>
<stop offset="1" stop-color="#AAFFCB"/>
</linearGradient>
<linearGradient id="paint1_linear_1_72" x1="0.241052" y1="-403.807" x2="551.667" y2="-387.434" gradientUnits="userSpaceOnUse">
<stop stop-color="#14DB60"/>
<stop offset="1" stop-color="#AAFFCB"/>
</linearGradient>
<linearGradient id="paint2_linear_1_72" x1="0.241052" y1="-403.807" x2="551.667" y2="-387.434" gradientUnits="userSpaceOnUse">
<stop stop-color="#14DB60"/>
<stop offset="1" stop-color="#AAFFCB"/>
</linearGradient>
<linearGradient id="paint3_linear_1_72" x1="0.241052" y1="-403.807" x2="551.667" y2="-387.434" gradientUnits="userSpaceOnUse">
<stop stop-color="#14DB60"/>
<stop offset="1" stop-color="#AAFFCB"/>
</linearGradient>
<linearGradient id="paint4_linear_1_72" x1="0.241052" y1="-403.807" x2="551.667" y2="-387.434" gradientUnits="userSpaceOnUse">
<stop stop-color="#14DB60"/>
<stop offset="1" stop-color="#AAFFCB"/>
</linearGradient>
<linearGradient id="paint5_linear_1_72" x1="0.241052" y1="-403.807" x2="551.667" y2="-387.434" gradientUnits="userSpaceOnUse">
<stop stop-color="#14DB60"/>
<stop offset="1" stop-color="#AAFFCB"/>
</linearGradient>
<linearGradient id="paint6_linear_1_72" x1="0.241052" y1="-403.807" x2="551.667" y2="-387.434" gradientUnits="userSpaceOnUse">
<stop stop-color="#14DB60"/>
<stop offset="1" stop-color="#AAFFCB"/>
</linearGradient>
<linearGradient id="paint7_linear_1_72" x1="0.241052" y1="-403.807" x2="551.667" y2="-387.434" gradientUnits="userSpaceOnUse">
<stop stop-color="#14DB60"/>
<stop offset="1" stop-color="#AAFFCB"/>
</linearGradient>
<linearGradient id="paint8_linear_1_72" x1="0.241052" y1="-403.807" x2="551.667" y2="-387.434" gradientUnits="userSpaceOnUse">
<stop stop-color="#14DB60"/>
<stop offset="1" stop-color="#AAFFCB"/>
</linearGradient>
<linearGradient id="paint9_linear_1_72" x1="0.241052" y1="-403.807" x2="551.667" y2="-387.434" gradientUnits="userSpaceOnUse">
<stop stop-color="#14DB60"/>
<stop offset="1" stop-color="#AAFFCB"/>
</linearGradient>
<linearGradient id="paint10_linear_1_72" x1="0.241052" y1="-403.807" x2="551.667" y2="-387.434" gradientUnits="userSpaceOnUse">
<stop stop-color="#14DB60"/>
<stop offset="1" stop-color="#AAFFCB"/>
</linearGradient>
<linearGradient id="paint11_linear_1_72" x1="0.241052" y1="-403.807" x2="551.667" y2="-387.434" gradientUnits="userSpaceOnUse">
<stop stop-color="#14DB60"/>
<stop offset="1" stop-color="#AAFFCB"/>
</linearGradient>
<linearGradient id="paint12_linear_1_72" x1="0.241052" y1="-403.807" x2="551.667" y2="-387.434" gradientUnits="userSpaceOnUse">
<stop stop-color="#14DB60"/>
<stop offset="1" stop-color="#AAFFCB"/>
</linearGradient>
<linearGradient id="paint13_linear_1_72" x1="0.241052" y1="-403.807" x2="551.667" y2="-387.434" gradientUnits="userSpaceOnUse">
<stop stop-color="#14DB60"/>
<stop offset="1" stop-color="#AAFFCB"/>
</linearGradient>
<linearGradient id="paint14_linear_1_72" x1="0.241052" y1="-403.807" x2="551.667" y2="-387.434" gradientUnits="userSpaceOnUse">
<stop stop-color="#14DB60"/>
<stop offset="1" stop-color="#AAFFCB"/>
</linearGradient>
<linearGradient id="paint15_linear_1_72" x1="0.241052" y1="-403.807" x2="551.667" y2="-387.434" gradientUnits="userSpaceOnUse">
<stop stop-color="#14DB60"/>
<stop offset="1" stop-color="#AAFFCB"/>
</linearGradient>
</defs>
</svg>
