<svg width="189" height="27" viewBox="0 0 189 27" fill="none" xmlns="http://www.w3.org/2000/svg">
<g id="Group 22">
<path id="Rectangle 174" d="M0.305176 13.4474C0.305176 6.3059 5.65649 0.516602 12.2577 0.516602H176.625C183.226 0.516602 188.577 6.3059 188.577 13.4474C188.577 20.5888 183.226 26.3781 176.625 26.3781H12.2577C5.65652 26.3781 0.305176 20.5888 0.305176 13.4474Z" fill="white"/>
<g id="&#224;&#185;&#128;&#224;&#184;&#167;&#224;&#184;&#165;&#224;&#184;&#178; 13:00-19:00 &#224;&#184;&#153;.">
<path d="M19.0638 19.6938C18.397 19.6938 17.8624 19.5386 17.46 19.2281C17.0576 18.9062 16.8564 18.3774 16.8564 17.6416V10.071H19.0466V17.3657C19.0466 17.8255 19.265 18.0555 19.7019 18.0555C19.8858 18.0555 20.087 18.0152 20.3055 17.9348L20.5469 19.3833C20.3285 19.4983 20.0928 19.5788 19.8399 19.6248C19.5869 19.6708 19.3283 19.6938 19.0638 19.6938Z" fill="#100751"/>
<path d="M24.7264 19.7283C23.6572 19.7283 22.68 19.4868 21.7948 19.004L22.3983 17.4002C22.6513 17.5496 22.9502 17.6818 23.2951 17.7968C23.64 17.9003 24.0021 17.952 24.3815 17.952C25.0943 17.952 25.6577 17.6818 26.0716 17.1415C26.4969 16.6011 26.7096 15.8021 26.7096 14.7444C26.7096 13.7327 26.4969 12.9624 26.0716 12.4335C25.6462 11.9047 24.9966 11.6403 24.1229 11.6403C23.7435 11.6403 23.3583 11.692 22.9674 11.7955C22.5765 11.8874 22.2431 12.0139 21.9672 12.1749V10.3641C22.6685 10.0307 23.502 9.86401 24.4678 9.86401C26.0428 9.86401 27.181 10.3009 27.8823 11.1746C28.5836 12.0484 28.9343 13.2383 28.9343 14.7444C28.9343 16.3424 28.5721 17.5726 27.8478 18.4349C27.135 19.2971 26.0946 19.7283 24.7264 19.7283Z" fill="#100751"/>
<path d="M34.0709 19.6938C33.0707 19.6938 32.3004 19.4581 31.7601 18.9867C31.2312 18.5153 30.9668 17.8543 30.9668 17.0035C30.9668 16.0608 31.3002 15.325 31.967 14.7961C32.6453 14.2558 33.726 13.9339 35.2091 13.8304L36.9509 13.7097V13.3303C36.9509 12.698 36.7899 12.2496 36.468 11.9852C36.1576 11.7092 35.6575 11.5713 34.9677 11.5713C34.3813 11.5713 33.8122 11.6575 33.2604 11.83C32.7085 11.9909 32.2142 12.2036 31.7773 12.468V10.5883C32.0992 10.4274 32.5591 10.2664 33.1569 10.1054C33.7547 9.94449 34.4388 9.86401 35.2091 9.86401C36.0024 9.86401 36.6864 9.97898 37.2613 10.2089C37.8476 10.4274 38.296 10.7952 38.6064 11.3126C38.9283 11.8185 39.0893 12.4968 39.0893 13.3475V19.5213H36.9509V15.348L35.4678 15.4687C34.594 15.5492 33.9904 15.7101 33.657 15.9516C33.3236 16.1815 33.1569 16.5092 33.1569 16.9345C33.1569 17.3369 33.2834 17.6416 33.5363 17.8485C33.8007 18.044 34.1571 18.1417 34.6055 18.1417C34.7665 18.1417 34.9217 18.1302 35.0711 18.1072C35.2206 18.0727 35.3528 18.0382 35.4678 18.0037L35.7092 19.4351C35.4793 19.5156 35.2206 19.5788 34.9332 19.6248C34.6572 19.6708 34.3698 19.6938 34.0709 19.6938Z" fill="#100751"/>
<path d="M44.5541 19.5213V13.1061C44.5541 12.5887 44.4334 12.2151 44.1919 11.9852C43.9505 11.7437 43.5596 11.623 43.0193 11.623C42.6284 11.623 42.2662 11.6805 41.9328 11.7955C41.5994 11.8989 41.2833 12.0312 40.9843 12.1921V10.3814C41.2258 10.2664 41.5707 10.1514 42.019 10.0365C42.4789 9.92149 43.0078 9.86401 43.6056 9.86401C44.2264 9.86401 44.7725 9.95598 45.2439 10.1399C45.7153 10.3124 46.0832 10.6113 46.3476 11.0367C46.612 11.4506 46.7442 12.0139 46.7442 12.7267V19.5213H44.5541Z" fill="#100751"/>
<path d="M60.3092 19.5213H57.7052V12.3991C57.7052 12.1116 57.7109 11.7265 57.7224 11.2436C57.7339 10.7493 57.7511 10.3181 57.7741 9.95024C57.7166 10.0192 57.5902 10.1457 57.3947 10.3296C57.2108 10.5021 57.0383 10.6573 56.8774 10.7952L55.4633 11.9334L54.2044 10.3641L58.1708 7.20825H60.3092V19.5213Z" fill="#100751"/>
<path d="M72.2129 9.96748C72.2129 10.8182 71.9542 11.4966 71.4369 12.0024C70.931 12.5083 70.3045 12.8532 69.5572 13.0371V13.0889C70.5344 13.2153 71.2817 13.52 71.799 14.0029C72.3164 14.4857 72.5751 15.1295 72.5751 15.9343C72.5751 16.6471 72.3969 17.2909 72.0405 17.8658C71.6956 18.4291 71.1552 18.8775 70.4194 19.2109C69.6951 19.5328 68.7581 19.6938 67.6085 19.6938C66.2748 19.6938 65.0907 19.4696 64.056 19.0212V16.8138C64.5848 17.0782 65.1367 17.2794 65.7115 17.4174C66.2863 17.5554 66.8267 17.6243 67.3325 17.6243C68.2638 17.6243 68.9133 17.4634 69.2812 17.1415C69.6606 16.8196 69.8503 16.3654 69.8503 15.7791C69.8503 15.4457 69.7641 15.1583 69.5917 14.9168C69.4192 14.6754 69.1145 14.4972 68.6777 14.3822C68.2523 14.2558 67.6545 14.1925 66.8842 14.1925H65.9529V12.1921H66.9014C67.6602 12.1921 68.235 12.1231 68.6259 11.9852C69.0283 11.8357 69.2985 11.6403 69.4365 11.3988C69.5859 11.1459 69.6606 10.8585 69.6606 10.5366C69.6606 10.0997 69.5227 9.76054 69.2468 9.51911C68.9823 9.26618 68.534 9.13971 67.9016 9.13971C67.3153 9.13971 66.8037 9.24318 66.3668 9.45012C65.9299 9.65707 65.5678 9.85251 65.2804 10.0365L64.0732 8.24296C64.5561 7.89806 65.1194 7.61064 65.7632 7.3807C66.4185 7.15077 67.1946 7.0358 68.0913 7.0358C69.356 7.0358 70.3562 7.29448 71.092 7.81183C71.8393 8.31769 72.2129 9.03624 72.2129 9.96748Z" fill="#100751"/>
<path d="M74.5973 11.3643C74.5973 10.8355 74.7411 10.4676 75.0285 10.2606C75.3159 10.0422 75.6665 9.93299 76.0804 9.93299C76.4828 9.93299 76.8277 10.0422 77.1151 10.2606C77.4026 10.4676 77.5463 10.8355 77.5463 11.3643C77.5463 11.8702 77.4026 12.2381 77.1151 12.468C76.8277 12.6865 76.4828 12.7957 76.0804 12.7957C75.6665 12.7957 75.3159 12.6865 75.0285 12.468C74.7411 12.2381 74.5973 11.8702 74.5973 11.3643ZM74.5973 18.3141C74.5973 17.7853 74.7411 17.4174 75.0285 17.2105C75.3159 16.992 75.6665 16.8828 76.0804 16.8828C76.4828 16.8828 76.8277 16.992 77.1151 17.2105C77.4026 17.4174 77.5463 17.7853 77.5463 18.3141C77.5463 18.82 77.4026 19.1879 77.1151 19.4178C76.8277 19.6363 76.4828 19.7455 76.0804 19.7455C75.6665 19.7455 75.3159 19.6363 75.0285 19.4178C74.7411 19.1879 74.5973 18.82 74.5973 18.3141Z" fill="#100751"/>
<path d="M88.103 13.3648C88.103 14.6869 87.9593 15.8193 87.6719 16.7621C87.396 17.7048 86.9418 18.4291 86.3095 18.935C85.6772 19.4408 84.8379 19.6938 83.7917 19.6938C82.3086 19.6938 81.2222 19.1362 80.5324 18.021C79.8426 16.9058 79.4977 15.3537 79.4977 13.3648C79.4977 12.0426 79.6356 10.9102 79.9116 9.96748C80.1875 9.01325 80.6416 8.2832 81.2739 7.77734C81.9062 7.27148 82.7455 7.01855 83.7917 7.01855C85.2633 7.01855 86.3498 7.57615 87.0511 8.69134C87.7524 9.80652 88.103 11.3643 88.103 13.3648ZM82.0844 13.3648C82.0844 14.7674 82.2052 15.8251 82.4466 16.5379C82.688 17.2392 83.1364 17.5898 83.7917 17.5898C84.4355 17.5898 84.8839 17.2392 85.1368 16.5379C85.3898 15.8366 85.5162 14.7789 85.5162 13.3648C85.5162 11.9622 85.3898 10.9045 85.1368 10.1917C84.8839 9.47887 84.4355 9.12247 83.7917 9.12247C83.1364 9.12247 82.688 9.47887 82.4466 10.1917C82.2052 10.9045 82.0844 11.9622 82.0844 13.3648Z" fill="#100751"/>
<path d="M98.3167 13.3648C98.3167 14.6869 98.173 15.8193 97.8856 16.7621C97.6097 17.7048 97.1556 18.4291 96.5232 18.935C95.8909 19.4408 95.0517 19.6938 94.0054 19.6938C92.5224 19.6938 91.4359 19.1362 90.7461 18.021C90.0563 16.9058 89.7114 15.3537 89.7114 13.3648C89.7114 12.0426 89.8493 10.9102 90.1253 9.96748C90.4012 9.01325 90.8553 8.2832 91.4876 7.77734C92.12 7.27148 92.9592 7.01855 94.0054 7.01855C95.477 7.01855 96.5635 7.57615 97.2648 8.69134C97.9661 9.80652 98.3167 11.3643 98.3167 13.3648ZM92.2982 13.3648C92.2982 14.7674 92.4189 15.8251 92.6603 16.5379C92.9018 17.2392 93.3501 17.5898 94.0054 17.5898C94.6493 17.5898 95.0976 17.2392 95.3506 16.5379C95.6035 15.8366 95.73 14.7789 95.73 13.3648C95.73 11.9622 95.6035 10.9045 95.3506 10.1917C95.0976 9.47887 94.6493 9.12247 94.0054 9.12247C93.3501 9.12247 92.9018 9.47887 92.6603 10.1917C92.4189 10.9045 92.2982 11.9622 92.2982 13.3648Z" fill="#100751"/>
<path d="M99.8906 15.8136V13.9856H104.271V15.8136H99.8906Z" fill="#100751"/>
<path d="M112.329 19.5213H109.725V12.3991C109.725 12.1116 109.731 11.7265 109.742 11.2436C109.754 10.7493 109.771 10.3181 109.794 9.95024C109.736 10.0192 109.61 10.1457 109.415 10.3296C109.231 10.5021 109.058 10.6573 108.897 10.7952L107.483 11.9334L106.224 10.3641L110.191 7.20825H112.329V19.5213Z" fill="#100751"/>
<path d="M124.664 12.468C124.664 13.1693 124.612 13.8706 124.509 14.5719C124.405 15.2618 124.221 15.9171 123.957 16.5379C123.704 17.1472 123.342 17.6933 122.87 18.1762C122.41 18.6476 121.818 19.0212 121.094 19.2971C120.381 19.5615 119.513 19.6938 118.49 19.6938C118.249 19.6938 117.967 19.6823 117.645 19.6593C117.323 19.6478 117.053 19.619 116.835 19.573V17.4864C117.064 17.5324 117.306 17.5726 117.559 17.6071C117.812 17.6416 118.065 17.6588 118.318 17.6588C119.341 17.6588 120.128 17.4979 120.68 17.176C121.244 16.8541 121.64 16.4057 121.87 15.8308C122.1 15.2445 122.232 14.5719 122.267 13.8132H122.163C121.922 14.2155 121.6 14.5547 121.198 14.8306C120.807 15.1065 120.22 15.2445 119.439 15.2445C118.392 15.2445 117.553 14.9054 116.921 14.227C116.288 13.5487 115.972 12.5887 115.972 11.3471C115.972 10.0135 116.346 8.96726 117.093 8.20847C117.852 7.44968 118.875 7.07029 120.163 7.07029C121.002 7.07029 121.761 7.26574 122.439 7.65663C123.118 8.03602 123.658 8.6281 124.06 9.43288C124.463 10.2262 124.664 11.2379 124.664 12.468ZM120.215 9.15696C119.709 9.15696 119.295 9.33516 118.973 9.69156C118.651 10.0365 118.49 10.5768 118.49 11.3126C118.49 11.9104 118.628 12.3818 118.904 12.7267C119.18 13.0716 119.6 13.2441 120.163 13.2441C120.542 13.2441 120.876 13.1578 121.163 12.9854C121.451 12.8129 121.675 12.6002 121.836 12.3473C121.997 12.0829 122.077 11.8127 122.077 11.5368C122.077 11.1574 122.008 10.7838 121.87 10.4159C121.732 10.048 121.525 9.74904 121.249 9.51911C120.973 9.27767 120.629 9.15696 120.215 9.15696Z" fill="#100751"/>
<path d="M126.617 11.3643C126.617 10.8355 126.761 10.4676 127.048 10.2606C127.336 10.0422 127.686 9.93299 128.1 9.93299C128.503 9.93299 128.848 10.0422 129.135 10.2606C129.422 10.4676 129.566 10.8355 129.566 11.3643C129.566 11.8702 129.422 12.2381 129.135 12.468C128.848 12.6865 128.503 12.7957 128.1 12.7957C127.686 12.7957 127.336 12.6865 127.048 12.468C126.761 12.2381 126.617 11.8702 126.617 11.3643ZM126.617 18.3141C126.617 17.7853 126.761 17.4174 127.048 17.2105C127.336 16.992 127.686 16.8828 128.1 16.8828C128.503 16.8828 128.848 16.992 129.135 17.2105C129.422 17.4174 129.566 17.7853 129.566 18.3141C129.566 18.82 129.422 19.1879 129.135 19.4178C128.848 19.6363 128.503 19.7455 128.1 19.7455C127.686 19.7455 127.336 19.6363 127.048 19.4178C126.761 19.1879 126.617 18.82 126.617 18.3141Z" fill="#100751"/>
<path d="M140.123 13.3648C140.123 14.6869 139.979 15.8193 139.692 16.7621C139.416 17.7048 138.962 18.4291 138.329 18.935C137.697 19.4408 136.858 19.6938 135.812 19.6938C134.328 19.6938 133.242 19.1362 132.552 18.021C131.862 16.9058 131.517 15.3537 131.517 13.3648C131.517 12.0426 131.655 10.9102 131.931 9.96748C132.207 9.01325 132.661 8.2832 133.294 7.77734C133.926 7.27148 134.765 7.01855 135.812 7.01855C137.283 7.01855 138.37 7.57615 139.071 8.69134C139.772 9.80652 140.123 11.3643 140.123 13.3648ZM134.104 13.3648C134.104 14.7674 134.225 15.8251 134.466 16.5379C134.708 17.2392 135.156 17.5898 135.812 17.5898C136.455 17.5898 136.904 17.2392 137.157 16.5379C137.41 15.8366 137.536 14.7789 137.536 13.3648C137.536 11.9622 137.41 10.9045 137.157 10.1917C136.904 9.47887 136.455 9.12247 135.812 9.12247C135.156 9.12247 134.708 9.47887 134.466 10.1917C134.225 10.9045 134.104 11.9622 134.104 13.3648Z" fill="#100751"/>
<path d="M150.337 13.3648C150.337 14.6869 150.193 15.8193 149.905 16.7621C149.63 17.7048 149.175 18.4291 148.543 18.935C147.911 19.4408 147.071 19.6938 146.025 19.6938C144.542 19.6938 143.456 19.1362 142.766 18.021C142.076 16.9058 141.731 15.3537 141.731 13.3648C141.731 12.0426 141.869 10.9102 142.145 9.96748C142.421 9.01325 142.875 8.2832 143.507 7.77734C144.14 7.27148 144.979 7.01855 146.025 7.01855C147.497 7.01855 148.583 7.57615 149.285 8.69134C149.986 9.80652 150.337 11.3643 150.337 13.3648ZM144.318 13.3648C144.318 14.7674 144.439 15.8251 144.68 16.5379C144.922 17.2392 145.37 17.5898 146.025 17.5898C146.669 17.5898 147.117 17.2392 147.37 16.5379C147.623 15.8366 147.75 14.7789 147.75 13.3648C147.75 11.9622 147.623 10.9045 147.37 10.1917C147.117 9.47887 146.669 9.12247 146.025 9.12247C145.37 9.12247 144.922 9.47887 144.68 10.1917C144.439 10.9045 144.318 11.9622 144.318 13.3648Z" fill="#100751"/>
<path d="M160.667 19.6938C159.621 19.6938 158.816 19.4063 158.253 18.8315C157.701 18.2452 157.425 17.3657 157.425 16.193V10.071H159.615V15.8826C159.615 16.5494 159.759 17.038 160.046 17.3484C160.334 17.6588 160.759 17.814 161.322 17.814C162.001 17.814 162.524 17.5726 162.892 17.0897C163.271 16.6069 163.461 15.8941 163.461 14.9513V10.071H165.651V19.5213H163.944L163.754 18.09H163.616C163.42 18.5613 163.076 18.9465 162.581 19.2454C162.098 19.5443 161.46 19.6938 160.667 19.6938Z" fill="#100751"/>
<path d="M168.406 18.3141C168.406 17.7853 168.55 17.4174 168.838 17.2105C169.125 16.992 169.476 16.8828 169.889 16.8828C170.292 16.8828 170.637 16.992 170.924 17.2105C171.212 17.4174 171.355 17.7853 171.355 18.3141C171.355 18.82 171.212 19.1879 170.924 19.4178C170.637 19.6363 170.292 19.7455 169.889 19.7455C169.476 19.7455 169.125 19.6363 168.838 19.4178C168.55 19.1879 168.406 18.82 168.406 18.3141Z" fill="#100751"/>
</g>
</g>
</svg>
