<svg width="122" height="19" viewBox="0 0 122 19" fill="none" xmlns="http://www.w3.org/2000/svg">
<g id="Mar 2023">
<path d="M19.0732 1.60642V17.9512H15.6646V7.32006L11.1116 17.9512H8.53083L3.95354 7.32006V17.9512H0.544922V1.60642H4.41614L9.82124 13.7596L15.2263 1.60642H19.0732Z" fill="#FCFEFF"/>
<path d="M33.5943 14.8368H26.8257L25.7058 17.9512H22.1267L28.2379 1.583H32.2065L38.3177 17.9512H34.7143L33.5943 14.8368ZM32.6691 12.2141L30.21 5.37648L27.7509 12.2141H32.6691Z" fill="#FCFEFF"/>
<path d="M50.0974 17.9512L46.3479 11.5819H44.741V17.9512H41.3323V1.60642H47.7113C49.0261 1.60642 50.1461 1.83278 51.0713 2.2855C51.9965 2.72261 52.6863 3.32363 53.1408 4.08857C53.6115 4.8379 53.8469 5.6809 53.8469 6.61756C53.8469 7.69472 53.5222 8.67041 52.873 9.54463C52.2237 10.4032 51.2579 10.9965 49.9756 11.3243L54.0416 17.9512H50.0974ZM44.741 9.12313H47.5896C48.5148 9.12313 49.2046 8.91238 49.6591 8.49088C50.1136 8.05378 50.3408 7.45275 50.3408 6.68781C50.3408 5.93848 50.1136 5.36087 49.6591 4.95498C49.2046 4.53349 48.5148 4.32274 47.5896 4.32274H44.741V9.12313Z" fill="#FCFEFF"/>
<path d="M64.8739 14.2514C66.4321 13.0025 67.6738 11.9643 68.599 11.137C69.5242 10.294 70.2952 9.41974 70.912 8.5143C71.5288 7.60886 71.8372 6.71903 71.8372 5.84481C71.8372 5.04865 71.6424 4.42421 71.2529 3.97149C70.8633 3.51877 70.2628 3.29241 69.4512 3.29241C68.6396 3.29241 68.0147 3.5578 67.5764 4.08857C67.1382 4.60374 66.9109 5.31404 66.8947 6.21948H63.5835C63.6484 4.34615 64.2246 2.92555 65.3121 1.95767C66.4159 0.98978 67.8118 0.505838 69.4999 0.505838C71.3503 0.505838 72.7705 0.981975 73.7607 1.93425C74.7508 2.87091 75.2458 4.11199 75.2458 5.65748C75.2458 6.87514 74.905 8.03816 74.2233 9.14655C73.5415 10.2549 72.7624 11.2228 71.8859 12.0502C71.0094 12.862 69.8651 13.8455 68.4529 15.0007H75.6354V17.717H63.6078V15.2817L64.8739 14.2514Z" fill="#FCFEFF"/>
<path d="M78.5137 9.19338C78.5137 6.49267 79.0169 4.37738 80.0232 2.84749C81.0458 1.31761 82.7339 0.552672 85.0875 0.552672C87.441 0.552672 89.121 1.31761 90.1274 2.84749C91.15 4.37738 91.6612 6.49267 91.6612 9.19338C91.6612 11.9097 91.15 14.0406 90.1274 15.5861C89.121 17.1316 87.441 17.9043 85.0875 17.9043C82.7339 17.9043 81.0458 17.1316 80.0232 15.5861C79.0169 14.0406 78.5137 11.9097 78.5137 9.19338ZM88.3013 9.19338C88.3013 8.03816 88.2202 7.07028 88.0578 6.28973C87.9118 5.49356 87.6034 4.84571 87.1327 4.34615C86.6782 3.8466 85.9964 3.59682 85.0875 3.59682C84.1785 3.59682 83.4887 3.8466 83.018 4.34615C82.5635 4.84571 82.2551 5.49356 82.0928 6.28973C81.9467 7.07028 81.8736 8.03816 81.8736 9.19338C81.8736 10.3798 81.9467 11.3789 82.0928 12.1907C82.2388 12.9869 82.5472 13.6347 83.018 14.1343C83.4887 14.6182 84.1785 14.8602 85.0875 14.8602C85.9964 14.8602 86.6863 14.6182 87.157 14.1343C87.6277 13.6347 87.9361 12.9869 88.0822 12.1907C88.2283 11.3789 88.3013 10.3798 88.3013 9.19338Z" fill="#FCFEFF"/>
<path d="M96.0556 14.2514C97.6138 13.0025 98.8555 11.9643 99.7807 11.137C100.706 10.294 101.477 9.41974 102.094 8.5143C102.71 7.60886 103.019 6.71903 103.019 5.84481C103.019 5.04865 102.824 4.42421 102.435 3.97149C102.045 3.51877 101.444 3.29241 100.633 3.29241C99.8213 3.29241 99.1964 3.5578 98.7581 4.08857C98.3199 4.60374 98.0926 5.31404 98.0764 6.21948H94.7651C94.8301 4.34615 95.4063 2.92555 96.4938 1.95767C97.5975 0.98978 98.9935 0.505838 100.682 0.505838C102.532 0.505838 103.952 0.981975 104.942 1.93425C105.932 2.87091 106.427 4.11199 106.427 5.65748C106.427 6.87514 106.087 8.03816 105.405 9.14655C104.723 10.2549 103.944 11.2228 103.068 12.0502C102.191 12.862 101.047 13.8455 99.6346 15.0007H106.817V17.717H94.7895V15.2817L96.0556 14.2514Z" fill="#FCFEFF"/>
<path d="M109.744 5.37648C109.825 3.81538 110.393 2.61333 111.448 1.77033C112.52 0.911726 113.924 0.482422 115.66 0.482422C116.845 0.482422 117.86 0.685366 118.704 1.09125C119.548 1.48153 120.181 2.02011 120.603 2.707C121.041 3.37827 121.26 4.14321 121.26 5.00182C121.26 5.98531 120.993 6.8205 120.457 7.50739C119.937 8.17866 119.313 8.63138 118.582 8.86555V8.95922C119.524 9.24021 120.254 9.73977 120.773 10.4579C121.309 11.176 121.577 12.097 121.577 13.221C121.577 14.1577 121.35 14.9929 120.895 15.7266C120.457 16.4603 119.799 17.0379 118.923 17.4594C118.063 17.8653 117.024 18.0683 115.807 18.0683C113.972 18.0683 112.479 17.6233 111.327 16.7335C110.174 15.8437 109.566 14.5324 109.501 12.7995H112.812C112.844 13.5645 113.112 14.1811 113.615 14.6494C114.135 15.1022 114.841 15.3285 115.733 15.3285C116.561 15.3285 117.194 15.11 117.633 14.6729C118.087 14.2201 118.314 13.6425 118.314 12.94C118.314 12.0034 118.006 11.3321 117.389 10.9262C116.772 10.5203 115.815 10.3174 114.516 10.3174H113.81V7.62447H114.516C116.821 7.62447 117.973 6.88295 117.973 5.3999C117.973 4.72862 117.762 4.20565 117.34 3.83099C116.935 3.45632 116.342 3.26899 115.563 3.26899C114.8 3.26899 114.208 3.47194 113.786 3.87782C113.38 4.2681 113.145 4.76765 113.08 5.37648H109.744Z" fill="#FCFEFF"/>
</g>
</svg>
